<svg version="1.1" id="Layer_1" xmlns="http://www.w3.org/2000/svg" xmlns:xlink="http://www.w3.org/1999/xlink" x="0px" y="0px"
	 width="100%" viewBox="0 0 500 500" enable-background="new 0 0 500 500" xml:space="preserve">
<path fill="#FFFFFF" opacity="1.000000" stroke="none" 
	d="
M1.000000,103.000000 
	C1.000000,69.011024 1.000000,35.022053 1.000000,1.016540 
	C167.601593,1.016540 334.203186,1.016540 500.902405,1.016540 
	C500.902405,167.547485 500.902405,334.095062 500.902405,501.000000 
	C422.311676,501.000000 343.622833,501.000000 264.402557,500.618958 
	C266.239258,497.595398 268.754211,495.068817 270.949677,492.289886 
	C279.822144,481.059418 289.313263,470.232727 297.271698,458.381134 
	C320.845825,423.274872 326.953888,384.455719 317.307098,343.771515 
	C310.515686,315.129578 292.884552,292.342194 272.023041,272.090485 
	C260.104309,260.520142 246.183624,252.444138 230.107056,248.011215 
	C222.613922,245.945068 214.952972,244.017883 207.941696,240.784058 
	C197.470566,235.954468 196.920105,230.165955 205.155441,222.119324 
	C205.274628,222.002884 205.384155,221.873917 205.515015,221.772491 
	C217.582001,212.417908 229.429489,202.759445 241.797424,193.821136 
	C249.949417,187.929703 250.493790,188.268906 255.640076,196.866211 
	C258.112091,200.995926 260.433380,198.420731 262.692108,197.375977 
	C265.106781,196.259094 268.664825,195.146027 266.522827,191.320053 
	C261.662354,182.638428 256.570679,174.084000 251.415512,165.573257 
	C250.934128,164.778503 249.195084,164.099106 248.271530,164.322693 
	C241.888046,165.868057 240.049622,170.397324 243.286819,175.954346 
	C243.924225,177.048523 244.288315,178.301926 244.868851,179.699539 
	C226.854584,190.657471 210.037949,202.750305 195.204651,217.477631 
	C188.184158,224.447937 186.001755,224.180954 179.623642,216.787109 
	C179.189041,216.283295 178.701553,215.795471 178.391785,215.218048 
	C172.666214,204.545486 166.572418,194.048660 161.329758,183.142929 
	C145.157227,149.500977 122.247162,123.223839 85.817078,110.535545 
	C58.079918,100.874916 30.091728,96.314995 1.000000,103.000000 
z"/>
<path fill="#000000" opacity="1.000000" stroke="none" 
	d="
M1.000000,103.468658 
	C30.091728,96.314995 58.079918,100.874916 85.817078,110.535545 
	C122.247162,123.223839 145.157227,149.500977 161.329758,183.142929 
	C166.572418,194.048660 172.666214,204.545486 178.391785,215.218048 
	C178.701553,215.795471 179.189041,216.283295 179.623642,216.787109 
	C186.001755,224.180954 188.184158,224.447937 195.204651,217.477631 
	C210.037949,202.750305 226.854584,190.657471 244.868851,179.699539 
	C244.288315,178.301926 243.924225,177.048523 243.286819,175.954346 
	C240.049622,170.397324 241.888046,165.868057 248.271530,164.322693 
	C249.195084,164.099106 250.934128,164.778503 251.415512,165.573257 
	C256.570679,174.084000 261.662354,182.638428 266.522827,191.320053 
	C268.664825,195.146027 265.106781,196.259094 262.692108,197.375977 
	C260.433380,198.420731 258.112091,200.995926 255.640076,196.866211 
	C250.493790,188.268906 249.949417,187.929703 241.797424,193.821136 
	C229.429489,202.759445 217.582001,212.417908 205.515015,221.772491 
	C205.384155,221.873917 205.274628,222.002884 205.155441,222.119324 
	C196.920105,230.165955 197.470566,235.954468 207.941696,240.784058 
	C214.952972,244.017883 222.613922,245.945068 230.107056,248.011215 
	C246.183624,252.444138 260.104309,260.520142 272.023041,272.090485 
	C292.884552,292.342194 310.515686,315.129578 317.307098,343.771515 
	C326.953888,384.455719 320.845825,423.274872 297.271698,458.381134 
	C289.313263,470.232727 279.822144,481.059418 270.949677,492.289886 
	C268.754211,495.068817 266.239258,497.595398 263.935577,500.618958 
	C176.391388,501.000000 88.782776,501.000000 1.000000,501.000000 
	C1.000000,368.645813 1.000000,236.291565 1.000000,103.468658 
z"/>
</svg>